<svg width="240" height="240" viewBox="0 0 240 240" fill="none" xmlns="http://www.w3.org/2000/svg">
 <style>
    
    @media (prefers-color-scheme: light) {
    svg {
        background-color: #FFF;
    }

    path {
      fill: #0033FF;
    }
    }
    @media (prefers-color-scheme: dark) {
        svg {
        background-color: #0033FF;
    }
      path {
        fill: #FFF;
      }
    }
  </style>
<path d="M14.4062 149.28C14.4062 145.304 17.6298 142.08 21.6063 142.08H218.406C222.383 142.08 225.606 145.304 225.606 149.28C225.606 153.257 222.383 156.48 218.406 156.48H21.6063C17.6298 156.48 14.4062 153.257 14.4062 149.28Z" />
<path d="M52.8063 175.2C52.8063 171.224 56.0298 168 60.0063 168H180.006C183.983 168 187.206 171.224 187.206 175.2C187.206 179.177 183.983 182.4 180.006 182.4H60.0062C56.0298 182.4 52.8063 179.177 52.8063 175.2Z" />
<path d="M91.2063 201.12C91.2063 197.144 94.4298 193.92 98.4063 193.92H141.606C145.583 193.92 148.806 197.144 148.806 201.12C148.806 205.097 145.583 208.32 141.606 208.32H98.4063C94.4298 208.32 91.2063 205.097 91.2063 201.12Z" />
<path fill-rule="evenodd" clip-rule="evenodd" d="M215.977 130.384C215.996 129.588 216.006 128.79 216.006 127.989C216.006 75.064 173.026 32.1602 120.006 32.1602C66.9869 32.1602 24.0063 75.064 24.0063 127.989C24.0063 128.79 24.0161 129.588 24.0357 130.384H215.977ZM110.406 60.3273C110.406 55.0254 114.704 50.7273 120.006 50.7273C125.308 50.7273 129.606 55.0254 129.606 60.3273C129.606 65.6293 125.308 69.9273 120.006 69.9273C114.704 69.9273 110.406 65.6293 110.406 60.3273ZM55.8613 87.9329C56.3193 90.4104 57.0153 92.8394 57.9422 95.182C59.7481 99.7462 62.3951 103.893 65.7321 107.387C69.069 110.88 73.0305 113.651 77.3905 115.542C81.7504 117.432 86.4233 118.405 91.1424 118.405C95.8616 118.405 100.535 117.432 104.894 115.542C109.254 113.651 113.216 110.88 116.553 107.387C117.758 106.125 118.873 104.779 119.89 103.358C120.909 104.78 122.024 106.127 123.229 107.388C126.566 110.882 130.528 113.653 134.888 115.543C139.247 117.434 143.92 118.407 148.64 118.407C153.359 118.407 158.032 117.434 162.392 115.543C166.751 113.653 170.713 110.882 174.05 107.388C177.387 103.895 180.034 99.748 181.84 95.1838C182.767 92.8411 183.463 90.4122 183.921 87.9347C184.642 84.0314 181.357 80.7874 177.388 80.7874C173.419 80.7874 170.308 84.0781 169.114 87.8637C168.948 88.3904 168.763 88.9113 168.56 89.4252C167.476 92.1637 165.888 94.652 163.886 96.748C161.884 98.844 159.507 100.507 156.891 101.641C154.275 102.775 151.471 103.359 148.64 103.359C145.808 103.359 143.004 102.775 140.388 101.641C137.772 100.507 135.395 98.844 133.393 96.748C131.391 94.652 129.803 92.1637 128.719 89.4252C128.516 88.911 128.331 88.3898 128.165 87.8628C126.971 84.0776 123.861 80.787 119.892 80.7865C115.922 80.786 112.811 84.0769 111.617 87.8628C111.451 88.3892 111.266 88.9098 111.063 89.4235C109.979 92.162 108.391 94.6503 106.389 96.7463C104.387 98.8423 102.01 100.505 99.3936 101.639C96.7777 102.774 93.9739 103.357 91.1424 103.357C88.311 103.357 85.5072 102.774 82.8913 101.639C80.2753 100.505 77.8984 98.8423 75.8962 96.7463C73.8941 94.6503 72.3059 92.162 71.2223 89.4235C71.0189 88.9095 70.8341 88.3886 70.668 87.8619C69.4742 84.0764 66.3632 80.7856 62.3939 80.7856C58.4246 80.7856 55.1398 84.0297 55.8613 87.9329Z"/>
</svg>

