<?xml version="1.0" standalone="no"?>
<!DOCTYPE svg PUBLIC "-//W3C//DTD SVG 20010904//EN"
 "http://www.w3.org/TR/2001/REC-SVG-20010904/DTD/svg10.dtd">
<svg version="1.0" xmlns="http://www.w3.org/2000/svg"
 width="700.000000pt" height="700.000000pt" viewBox="0 0 700.000000 700.000000"
 preserveAspectRatio="xMidYMid meet">
<metadata>
Created by potrace 1.14, written by Peter Selinger 2001-2017
</metadata>
<g transform="translate(0.000000,700.000000) scale(0.100000,-0.100000)"
fill="#000000" stroke="none">
<path d="M3498 6066 c-1 -2 -66 -6 -143 -10 -77 -3 -156 -9 -175 -12 -144 -21
-234 -36 -239 -38 -3 -2 -22 -7 -41 -10 -96 -15 -289 -75 -440 -134 -824 -327
-1457 -1049 -1674 -1908 -14 -54 -27 -110 -29 -124 -3 -14 -8 -41 -12 -60 -11
-58 -13 -73 -20 -130 -3 -30 -8 -68 -11 -85 -2 -16 -7 -103 -10 -192 l-7 -163
24 -1 c31 -1 5550 -1 5568 0 22 2 9 287 -23 496 -9 55 -18 111 -21 125 -3 14
-7 34 -9 45 -21 101 -98 355 -131 430 -7 17 -30 68 -50 115 -79 180 -180 351
-310 525 -105 140 -127 166 -255 295 -311 314 -642 524 -1068 676 -163 58
-385 112 -532 129 -25 3 -61 7 -80 10 -19 3 -91 7 -160 11 -69 3 -130 7 -137
9 -6 2 -13 2 -15 1z m92 -562 c105 -31 190 -149 190 -265 0 -113 -86 -229
-194 -263 -189 -60 -382 94 -363 287 19 185 185 295 367 241z m-1661 -891 c58
-37 98 -93 135 -186 20 -52 48 -110 62 -130 13 -20 24 -40 24 -44 0 -5 35 -43
78 -84 124 -121 272 -183 432 -182 271 3 489 165 592 440 27 75 58 123 100
158 142 120 328 42 392 -165 6 -19 28 -67 49 -107 101 -189 316 -323 522 -325
277 -3 499 150 605 417 41 104 53 124 91 163 99 101 256 96 326 -9 51 -78 21
-239 -83 -438 -150 -290 -441 -510 -736 -557 -23 -3 -54 -8 -68 -11 -32 -5
-229 -5 -238 1 -4 2 -29 7 -57 10 -125 17 -296 92 -425 187 -64 46 -179 160
-213 209 l-18 25 -36 -45 c-204 -250 -496 -392 -803 -391 -58 1 -115 3 -126 5
-12 2 -39 7 -60 11 -117 18 -275 84 -396 166 -79 53 -211 185 -266 266 -79
116 -152 287 -177 411 -24 117 26 197 140 228 47 12 116 2 154 -23z"/>
<path d="M577 2849 c-45 -12 -93 -47 -123 -90 -24 -35 -28 -51 -28 -107 0 -73
15 -112 61 -158 62 -62 -185 -57 3002 -58 2242 -1 2913 2 2945 11 47 14 112
70 127 111 21 53 22 112 4 159 -23 59 -39 78 -95 111 l-45 27 -2911 0 c-1601
1 -2923 -2 -2937 -6z"/>
<path d="M1682 2089 c-73 -21 -142 -118 -142 -199 0 -70 49 -151 113 -187 31
-17 115 -18 1826 -21 1292 -1 1805 1 1834 9 56 15 121 81 137 138 29 108 -22
213 -122 255 -33 14 -235 16 -1825 15 -1091 0 -1801 -4 -1821 -10z"/>
<path d="M2823 1337 c-97 -20 -171 -122 -160 -219 4 -28 15 -67 25 -87 22 -42
84 -89 133 -100 19 -4 334 -7 700 -7 l666 1 49 30 c69 42 108 117 101 197 -7
81 -57 148 -133 179 -34 14 -1318 19 -1381 6z"/>
</g>
</svg>
