<svg width="500" height="500" viewBox="0 0 500 500" fill="none" xmlns="http://www.w3.org/2000/svg">
<rect width="500" height="500" fill="transparent"/>
<path d="M30 311C30 302.716 36.7157 296 45 296H455C463.284 296 470 302.716 470 311C470 319.284 463.284 326 455 326H45C36.7157 326 30 319.284 30 311Z" fill="#0033FF"/>
<path d="M110 365C110 356.716 116.716 350 125 350H375C383.284 350 390 356.716 390 365C390 373.284 383.284 380 375 380H125C116.716 380 110 373.284 110 365Z" fill="#0033FF"/>
<path d="M190 419C190 410.716 196.716 404 205 404H295C303.284 404 310 410.716 310 419C310 427.284 303.284 434 295 434H205C196.716 434 190 427.284 190 419Z" fill="#0033FF"/>
<path fill-rule="evenodd" clip-rule="evenodd" d="M449.939 271.634C449.98 269.975 450 268.311 450 266.643C450 156.383 360.457 67 250 67C139.543 67 50 156.383 50 266.643C50 268.311 50.0205 269.975 50.0613 271.634H449.939ZM230 125.682C230 114.636 238.954 105.682 250 105.682C261.046 105.682 270 114.636 270 125.682C270 136.727 261.046 145.682 250 145.682C238.954 145.682 230 136.727 230 125.682ZM116.365 183.193C117.319 188.355 118.769 193.415 120.7 198.296C124.462 207.804 129.977 216.444 136.929 223.722C143.881 231 152.134 236.773 161.217 240.711C170.3 244.65 180.036 246.677 189.867 246.677C199.699 246.677 209.434 244.65 218.517 240.711C227.6 236.773 235.853 231 242.805 223.722C245.315 221.094 247.638 218.289 249.759 215.329C251.88 218.29 254.203 221.097 256.714 223.726C263.666 231.003 271.92 236.776 281.003 240.715C290.086 244.654 299.821 246.681 309.653 246.681C319.484 246.681 329.22 244.654 338.303 240.715C347.386 236.776 355.639 231.003 362.591 223.726C369.543 216.448 375.057 207.808 378.82 198.299C380.751 193.419 382.201 188.358 383.155 183.197C384.658 175.065 377.815 168.307 369.546 168.307C361.276 168.307 354.795 175.162 352.308 183.049C351.962 184.146 351.577 185.231 351.153 186.302C348.896 192.007 345.587 197.191 341.416 201.558C337.244 205.925 332.293 209.388 326.843 211.752C321.393 214.115 315.552 215.331 309.653 215.331C303.754 215.331 297.913 214.115 292.463 211.752C287.013 209.388 282.061 205.925 277.89 201.558C273.719 197.191 270.41 192.007 268.152 186.302C267.729 185.231 267.343 184.145 266.997 183.047C264.51 175.161 258.03 168.306 249.762 168.305C241.492 168.304 235.009 175.16 232.522 183.047C232.176 184.144 231.791 185.228 231.367 186.299C229.11 192.004 225.801 197.188 221.63 201.554C217.459 205.921 212.507 209.385 207.057 211.748C201.607 214.111 195.766 215.328 189.867 215.328C183.968 215.328 178.127 214.111 172.677 211.748C167.227 209.385 162.275 205.921 158.104 201.554C153.933 197.188 150.624 192.004 148.367 186.299C147.943 185.228 147.558 184.143 147.212 183.045C144.725 175.159 138.244 168.303 129.974 168.303C121.705 168.303 114.861 175.062 116.365 183.193Z" fill="#0033FF"/>
</svg>
